#usda 1.0
(
    defaultPrim = "World"
    metersPerUnit = 1
    upAxis = "Z"
)

def Xform "World"
{
    def Mesh "Part"
    {
        int[] faceVertexCounts = [3, 3, 3, 3, 3, 3, 3, 3, 3, 3, 3, 3, 3, 3, 3, 3, 3, 3, 3, 3, 3, 3, 3, 3, 3, 3, 3, 3, 3, 3, 3, 3, 3, 3, 3, 3, 3, 3, 3, 3, 3, 3, 3, 3, 3, 3, 3, 3, 3, 3, 3, 3, 3, 3, 3, 3, 3, 3, 3, 3, 3, 3, 3, 3, 3, 3, 3, 3, 3, 3, 3, 3, 3, 3, 3, 3, 3, 3, 3, 3, 3, 3, 3, 3, 3, 3, 3, 3, 3, 3, 3, 3, 3, 3, 3, 3, 3, 3, 3, 3, 3, 3, 3, 3, 3, 3, 3, 3, 3, 3, 3, 3, 3, 3, 3, 3, 3, 3, 3, 3, 3, 3, 3, 3, 3, 3, 3, 3, 3, 3, 3, 3, 3, 3, 3, 3, 3, 3, 3, 3, 3, 3, 3, 3, 3, 3, 3, 3, 3, 3, 3, 3, 3, 3, 3, 3, 3, 3, 3, 3, 3, 3, 3, 3, 3, 3, 3, 3, 3, 3, 3, 3, 3, 3, 3, 3, 3, 3, 3, 3, 3, 3, 3, 3, 3, 3, 3, 3, 3, 3, 3, 3, 3, 3, 3, 3, 3, 3, 3, 3, 3, 3, 3, 3, 3, 3, 3, 3, 3, 3, 3, 3, 3, 3, 3, 3, 3, 3, 3, 3, 3, 3, 3, 3, 3, 3, 3, 3, 3, 3, 3, 3, 3, 3, 3, 3, 3, 3, 3, 3, 3, 3, 3, 3, 3, 3, 3, 3, 3, 3, 3, 3, 3, 3, 3, 3, 3, 3, 3, 3, 3, 3, 3, 3, 3, 3, 3, 3, 3, 3, 3, 3, 3, 3, 3, 3, 3, 3, 3, 3, 3, 3, 3, 3, 3, 3, 3, 3, 3, 3, 3, 3, 3, 3, 3, 3, 3, 3, 3, 3, 3, 3, 3, 3, 3, 3, 3, 3, 3, 3, 3, 3, 3, 3, 3, 3, 3, 3, 3, 3, 3, 3, 3, 3, 3, 3, 3, 3, 3, 3, 3, 3, 3, 3, 3, 3, 3, 3, 3, 3, 3, 3, 3, 3, 3, 3, 3, 3, 3, 3, 3, 3, 3, 3, 3, 3, 3, 3, 3, 3, 3, 3, 3, 3, 3, 3, 3, 3, 3, 3, 3, 3, 3, 3, 3, 3, 3, 3, 3, 3, 3, 3, 3, 3, 3, 3, 3, 3, 3, 3, 3, 3, 3, 3, 3, 3, 3, 3, 3, 3, 3, 3, 3, 3, 3, 3, 3, 3, 3, 3, 3, 3, 3, 3, 3, 3, 3, 3, 3, 3, 3, 3, 3, 3, 3, 3, 3, 3, 3, 3, 3, 3, 3, 3, 3, 3, 3, 3, 3, 3, 3, 3, 3, 3, 3, 3, 3, 3, 3, 3, 3, 3, 3, 3, 3, 3, 3, 3, 3, 3, 3, 3, 3, 3, 3, 3, 3, 3, 3, 3, 3, 3, 3, 3, 3, 3, 3, 3, 3, 3, 3, 3, 3, 3, 3, 3, 3, 3, 3, 3, 3, 3, 3, 3, 3, 3, 3, 3, 3, 3, 3, 3, 3, 3, 3, 3, 3, 3, 3, 3, 3, 3, 3, 3, 3, 3, 3, 3, 3, 3, 3, 3, 3, 3, 3, 3, 3, 3, 3, 3, 3, 3, 3, 3, 3, 3, 3, 3, 3, 3, 3, 3, 3, 3, 3, 3, 3, 3, 3, 3, 3, 3, 3, 3, 3, 3, 3, 3, 3, 3, 3, 3, 3, 3, 3, 3, 3, 3, 3, 3, 3, 3, 3, 3, 3, 3, 3, 3, 3, 3, 3, 3, 3, 3, 3, 3, 3, 3, 3, 3, 3, 3, 3, 3, 3, 3, 3, 3, 3, 3, 3, 3, 3, 3, 3, 3, 3, 3, 3, 3, 3, 3, 3, 3, 3, 3, 3, 3, 3, 3, 3, 3, 3, 3, 3, 3, 3, 3, 3, 3, 3, 3, 3, 3, 3, 3, 3, 3, 3, 3, 3, 3, 3, 3, 3, 3, 3, 3, 3, 3, 3, 3, 3, 3, 3, 3, 3, 3, 3, 3, 3, 3, 3, 3, 3, 3, 3, 3, 3, 3, 3, 3, 3, 3, 3, 3, 3, 3, 3, 3, 3, 3, 3, 3, 3, 3, 3, 3, 3, 3, 3, 3, 3, 3, 3, 3, 3, 3, 3, 3, 3, 3, 3, 3, 3, 3, 3, 3, 3, 3, 3, 3, 3, 3, 3, 3, 3, 3, 3, 3, 3, 3, 3, 3, 3, 3, 3, 3, 3, 3, 3, 3, 3, 3, 3, 3, 3, 3, 3, 3, 3, 3, 3, 3, 3, 3, 3, 3, 3, 3, 3, 3, 3, 3, 3, 3, 3, 3, 3, 3, 3, 3, 3, 3, 3, 3, 3, 3, 3, 3, 3, 3, 3, 3, 3, 3, 3, 3, 3, 3, 3, 3, 3, 3, 3, 3, 3, 3, 3, 3, 3, 3, 3, 3, 3, 3, 3, 3, 3, 3, 3, 3, 3, 3, 3, 3, 3, 3, 3, 3, 3, 3, 3, 3, 3, 3, 3, 3, 3, 3, 3, 3, 3, 3, 3, 3, 3, 3, 3, 3, 3, 3, 3, 3, 3, 3, 3, 3, 3, 3, 3, 3, 3, 3, 3, 3, 3, 3, 3, 3, 3, 3, 3, 3, 3, 3, 3, 3, 3, 3, 3, 3, 3, 3, 3, 3, 3, 3, 3, 3, 3, 3, 3, 3, 3, 3, 3, 3, 3, 3, 3, 3, 3, 3, 3, 3, 3, 3, 3, 3, 3, 3, 3, 3, 3, 3, 3, 3, 3, 3, 3, 3, 3, 3, 3, 3, 3, 3, 3, 3, 3, 3, 3, 3, 3, 3, 3, 3, 3, 3, 3, 3, 3, 3, 3, 3, 3, 3, 3, 3, 3, 3, 3, 3, 3, 3, 3, 3, 3, 3, 3, 3, 3, 3, 3, 3, 3, 3, 3, 3, 3, 3, 3, 3, 3, 3, 3, 3, 3, 3, 3, 3, 3, 3, 3, 3, 3, 3, 3, 3, 3, 3, 3, 3, 3, 3, 3, 3, 3, 3, 3, 3, 3, 3, 3, 3, 3, 3, 3, 3, 3, 3, 3, 3, 3, 3, 3, 3, 3, 3, 3, 3, 3, 3, 3, 3, 3, 3, 3, 3, 3, 3, 3, 3, 3, 3, 3, 3, 3, 3, 3, 3, 3, 3, 3, 3, 3, 3, 3, 3, 3, 3, 3, 3, 3, 3, 3, 3, 3, 3, 3, 3, 3, 3, 3, 3, 3, 3, 3, 3, 3, 3, 3, 3, 3, 3, 3, 3, 3, 3, 3, 3, 3, 3, 3, 3, 3, 3, 3, 3, 3, 3, 3, 3, 3, 3, 3, 3, 3, 3, 3, 3, 3, 3, 3, 3, 3, 3, 3, 3, 3, 3, 3, 3, 3, 3, 3, 3, 3, 3, 3, 3, 3, 3, 3, 3, 3, 3, 3, 3, 3, 3, 3, 3, 3, 3, 3, 3, 3, 3, 3, 3, 3, 3, 3, 3, 3, 3, 3, 3, 3, 3, 3, 3, 3, 3, 3, 3, 3, 3, 3, 3, 3, 3, 3, 3, 3, 3, 3, 3, 3, 3, 3, 3, 3, 3, 3, 3, 3, 3, 3, 3, 3, 3, 3, 3, 3, 3, 3, 3, 3, 3, 3, 3, 3, 3, 3, 3, 3, 3, 3, 3, 3, 3, 3, 3, 3, 3, 3, 3, 3, 3, 3, 3, 3, 3, 3, 3, 3, 3, 3, 3, 3, 3, 3, 3, 3, 3, 3, 3, 3, 3, 3, 3, 3, 3, 3, 3, 3, 3, 3, 3, 3, 3, 3, 3, 3, 3, 3, 3, 3, 3, 3, 3, 3, 3, 3, 3, 3, 3]
        int[] faceVertexIndices = [0, 1, 2, 1, 3, 2, 4, 5, 6, 5, 7, 6, 6, 7, 8, 7, 9, 8, 8, 9, 10, 9, 11, 10, 10, 11, 12, 11, 13, 12, 12, 13, 14, 13, 15, 14, 14, 15, 16, 15, 17, 16, 16, 17, 18, 17, 19, 18, 18, 19, 20, 19, 21, 20, 20, 21, 22, 21, 23, 22, 22, 23, 24, 23, 25, 24, 24, 25, 26, 25, 27, 26, 26, 27, 28, 27, 29, 28, 30, 31, 32, 30, 32, 33, 32, 34, 33, 33, 34, 35, 34, 36, 35, 35, 36, 37, 36, 38, 37, 37, 38, 39, 38, 40, 39, 39, 40, 41, 40, 42, 41, 41, 42, 43, 42, 44, 43, 43, 44, 45, 44, 46, 45, 45, 46, 47, 46, 48, 47, 47, 48, 49, 48, 50, 49, 49, 50, 51, 50, 52, 51, 51, 52, 53, 52, 54, 53, 53, 54, 55, 54, 56, 55, 55, 56, 57, 56, 58, 57, 57, 58, 59, 58, 60, 59, 59, 60, 61, 62, 63, 64, 63, 65, 64, 64, 65, 66, 65, 67, 66, 66, 67, 68, 67, 69, 68, 68, 69, 70, 69, 71, 70, 70, 71, 72, 71, 73, 72, 72, 73, 74, 73, 75, 74, 74, 75, 76, 75, 77, 76, 76, 77, 78, 77, 79, 78, 78, 79, 80, 79, 81, 80, 80, 81, 82, 81, 83, 82, 82, 83, 84, 83, 85, 84, 84, 85, 86, 85, 87, 86, 86, 87, 88, 87, 89, 88, 88, 89, 90, 89, 91, 90, 90, 91, 92, 91, 93, 92, 94, 95, 96, 94, 96, 97, 96, 98, 97, 97, 98, 99, 98, 100, 99, 99, 100, 101, 100, 102, 101, 101, 102, 103, 102, 104, 103, 103, 104, 105, 104, 106, 105, 105, 106, 107, 106, 108, 107, 107, 108, 109, 108, 110, 109, 109, 110, 111, 110, 112, 111, 111, 112, 113, 112, 114, 113, 113, 114, 115, 114, 116, 115, 115, 116, 117, 116, 118, 117, 117, 118, 119, 118, 120, 119, 119, 120, 121, 120, 122, 121, 121, 122, 123, 122, 124, 123, 123, 124, 125, 126, 127, 128, 127, 129, 128, 128, 129, 130, 129, 131, 130, 130, 131, 132, 131, 133, 132, 132, 133, 134, 133, 135, 134, 134, 135, 136, 135, 137, 136, 136, 137, 138, 137, 139, 138, 138, 139, 140, 139, 141, 140, 140, 141, 142, 141, 143, 142, 142, 143, 144, 143, 145, 144, 144, 145, 146, 145, 147, 146, 146, 147, 148, 147, 149, 148, 148, 149, 150, 149, 151, 150, 152, 153, 154, 152, 154, 155, 154, 156, 155, 155, 156, 157, 156, 158, 157, 157, 158, 159, 158, 160, 159, 159, 160, 161, 160, 162, 161, 161, 162, 163, 162, 164, 163, 163, 164, 165, 164, 166, 165, 165, 166, 167, 166, 168, 167, 167, 168, 169, 168, 170, 169, 169, 170, 171, 170, 172, 171, 171, 172, 173, 172, 174, 173, 173, 174, 175, 174, 176, 175, 175, 176, 177, 176, 178, 177, 177, 178, 179, 178, 180, 179, 179, 180, 181, 180, 182, 181, 181, 182, 183, 184, 185, 186, 184, 186, 187, 186, 188, 187, 187, 188, 189, 188, 190, 189, 189, 190, 191, 190, 192, 191, 191, 192, 193, 192, 194, 193, 193, 194, 195, 194, 196, 195, 195, 196, 197, 196, 198, 197, 197, 198, 199, 198, 200, 199, 199, 200, 201, 200, 202, 201, 201, 202, 203, 202, 204, 203, 203, 204, 205, 204, 206, 205, 205, 206, 207, 206, 208, 207, 207, 208, 209, 208, 210, 209, 209, 210, 211, 210, 212, 211, 211, 212, 213, 212, 214, 213, 213, 214, 215, 150, 151, 216, 150, 216, 217, 216, 218, 217, 217, 218, 219, 218, 220, 219, 219, 220, 221, 220, 222, 221, 221, 222, 223, 222, 224, 223, 223, 224, 225, 224, 226, 225, 225, 226, 227, 226, 228, 227, 227, 228, 229, 228, 230, 229, 229, 230, 231, 230, 232, 231, 231, 232, 233, 232, 234, 233, 233, 234, 235, 234, 236, 235, 235, 236, 237, 236, 238, 237, 237, 238, 239, 238, 240, 239, 239, 240, 241, 240, 242, 241, 241, 242, 243, 242, 244, 243, 243, 244, 245, 244, 246, 245, 245, 246, 247, 246, 248, 247, 247, 248, 249, 248, 250, 249, 249, 250, 251, 250, 252, 251, 251, 252, 253, 252, 254, 253, 253, 254, 255, 254, 256, 255, 255, 256, 257, 256, 258, 257, 257, 258, 259, 258, 5, 259, 259, 5, 4, 260, 261, 262, 261, 263, 262, 262, 263, 264, 263, 265, 264, 264, 265, 266, 265, 267, 266, 266, 267, 268, 267, 269, 268, 268, 269, 270, 269, 271, 270, 270, 271, 272, 271, 273, 272, 272, 273, 274, 273, 275, 274, 274, 275, 276, 275, 277, 276, 276, 277, 278, 277, 279, 278, 278, 279, 280, 279, 281, 280, 280, 281, 282, 281, 283, 282, 282, 283, 284, 283, 285, 284, 284, 285, 286, 285, 287, 286, 286, 287, 288, 287, 289, 288, 288, 289, 290, 289, 291, 290, 290, 291, 292, 291, 293, 292, 292, 293, 294, 293, 295, 294, 294, 295, 296, 295, 297, 296, 296, 297, 298, 297, 299, 298, 298, 299, 300, 299, 301, 300, 300, 301, 302, 301, 303, 302, 302, 303, 304, 303, 305, 304, 304, 305, 306, 305, 307, 306, 306, 307, 308, 307, 309, 308, 308, 309, 310, 309, 311, 310, 310, 311, 312, 311, 313, 312, 312, 313, 314, 313, 315, 314, 314, 315, 316, 315, 317, 316, 316, 317, 318, 317, 319, 318, 318, 319, 320, 319, 321, 320, 320, 321, 322, 321, 323, 322, 322, 323, 324, 323, 325, 324, 324, 325, 326, 325, 327, 326, 326, 327, 328, 327, 329, 328, 328, 329, 330, 329, 331, 330, 330, 331, 332, 331, 333, 332, 332, 333, 334, 333, 335, 334, 334, 335, 336, 335, 337, 336, 336, 337, 338, 337, 339, 338, 338, 339, 340, 339, 341, 340, 340, 341, 342, 341, 343, 342, 342, 343, 344, 343, 345, 344, 344, 345, 346, 345, 347, 346, 346, 347, 348, 347, 349, 348, 348, 349, 350, 349, 351, 350, 350, 351, 352, 351, 353, 352, 352, 353, 354, 353, 355, 354, 354, 355, 356, 355, 357, 356, 356, 357, 358, 357, 359, 358, 358, 359, 360, 359, 361, 360, 360, 361, 362, 361, 363, 362, 362, 363, 364, 363, 365, 364, 364, 365, 366, 365, 367, 366, 366, 367, 368, 367, 369, 368, 368, 369, 370, 369, 371, 370, 370, 371, 372, 371, 373, 372, 372, 373, 374, 373, 375, 374, 374, 375, 376, 375, 260, 376, 376, 260, 262, 377, 3, 125, 3, 93, 125, 378, 379, 93, 380, 381, 92, 101, 103, 105, 3, 1, 93, 1, 382, 93, 93, 382, 383, 379, 384, 93, 384, 385, 93, 93, 385, 386, 387, 388, 92, 388, 389, 92, 381, 390, 92, 390, 391, 92, 92, 391, 185, 391, 392, 185, 185, 392, 393, 393, 394, 214, 101, 105, 99, 383, 395, 93, 395, 396, 93, 93, 396, 378, 99, 105, 97, 105, 107, 97, 97, 107, 109, 109, 111, 97, 111, 113, 97, 97, 113, 115, 93, 94, 125, 94, 97, 125, 125, 97, 123, 97, 121, 123, 397, 398, 92, 398, 399, 92, 92, 399, 380, 115, 117, 97, 117, 119, 97, 97, 119, 121, 389, 400, 92, 400, 401, 92, 92, 401, 397, 192, 190, 393, 386, 402, 93, 402, 403, 93, 93, 403, 404, 404, 405, 93, 405, 406, 93, 93, 406, 92, 406, 407, 92, 92, 407, 387, 190, 188, 393, 188, 186, 393, 393, 186, 185, 214, 212, 393, 212, 210, 393, 393, 210, 208, 202, 200, 393, 200, 198, 393, 198, 196, 393, 196, 194, 393, 393, 194, 192, 208, 206, 393, 206, 204, 393, 393, 204, 202, 408, 409, 410, 409, 411, 410, 410, 411, 412, 411, 413, 412, 412, 413, 414, 413, 415, 414, 414, 415, 416, 415, 417, 416, 416, 417, 418, 417, 419, 418, 418, 419, 420, 419, 421, 420, 420, 421, 422, 421, 423, 422, 422, 423, 424, 423, 425, 424, 424, 425, 426, 425, 427, 426, 426, 427, 428, 427, 429, 428, 428, 429, 430, 429, 431, 430, 430, 431, 432, 431, 433, 432, 432, 433, 434, 433, 435, 434, 434, 435, 436, 435, 437, 436, 436, 437, 438, 437, 439, 438, 438, 439, 440, 439, 441, 440, 440, 441, 442, 441, 443, 442, 442, 443, 444, 443, 445, 444, 444, 445, 446, 445, 447, 446, 446, 447, 448, 447, 449, 448, 448, 449, 450, 449, 451, 450, 450, 451, 452, 451, 453, 452, 452, 453, 454, 453, 455, 454, 454, 455, 456, 455, 457, 456, 456, 457, 458, 457, 459, 458, 458, 459, 460, 459, 461, 460, 460, 461, 462, 461, 463, 462, 462, 463, 464, 463, 465, 464, 464, 465, 466, 465, 467, 466, 468, 469, 470, 469, 471, 470, 470, 471, 472, 471, 473, 472, 472, 473, 474, 473, 475, 474, 474, 475, 476, 475, 477, 476, 476, 477, 478, 477, 479, 478, 478, 479, 480, 479, 481, 480, 480, 481, 482, 481, 483, 482, 482, 483, 484, 483, 485, 484, 484, 485, 486, 485, 487, 486, 486, 487, 488, 487, 489, 488, 488, 489, 490, 489, 491, 490, 490, 491, 492, 491, 493, 492, 492, 493, 494, 493, 495, 494, 494, 495, 496, 495, 497, 496, 496, 497, 498, 497, 499, 498, 498, 499, 500, 499, 501, 500, 500, 501, 502, 501, 503, 502, 502, 503, 504, 503, 505, 504, 504, 505, 506, 505, 507, 506, 506, 507, 508, 507, 509, 508, 508, 509, 510, 509, 511, 510, 510, 511, 512, 511, 513, 512, 512, 513, 514, 513, 515, 514, 514, 515, 516, 515, 517, 516, 516, 517, 518, 517, 519, 518, 518, 519, 520, 519, 521, 520, 520, 521, 522, 521, 523, 522, 522, 523, 524, 523, 525, 524, 524, 525, 526, 525, 527, 526, 526, 527, 528, 527, 529, 528, 528, 529, 530, 529, 531, 530, 530, 531, 532, 531, 533, 532, 532, 533, 534, 533, 535, 534, 534, 535, 536, 535, 537, 536, 536, 537, 538, 537, 539, 538, 538, 539, 540, 539, 541, 540, 540, 541, 542, 541, 543, 542, 542, 543, 544, 543, 545, 544, 544, 545, 546, 545, 547, 546, 546, 547, 548, 547, 549, 548, 548, 549, 550, 549, 551, 550, 550, 551, 552, 551, 553, 552, 552, 553, 554, 553, 555, 554, 554, 555, 556, 555, 557, 556, 556, 557, 558, 557, 559, 558, 558, 559, 560, 559, 561, 560, 560, 561, 562, 561, 563, 562, 562, 563, 564, 563, 565, 564, 564, 565, 566, 565, 567, 566, 566, 567, 568, 567, 569, 568, 568, 569, 570, 569, 571, 570, 570, 571, 572, 571, 573, 572, 572, 573, 574, 573, 575, 574, 574, 575, 576, 575, 577, 576, 576, 577, 578, 577, 579, 578, 578, 579, 580, 579, 581, 580, 580, 581, 582, 581, 583, 582, 582, 583, 584, 583, 468, 584, 584, 468, 470, 585, 586, 587, 586, 588, 587, 589, 590, 591, 590, 592, 591, 592, 593, 591, 591, 593, 594, 184, 595, 586, 595, 596, 586, 586, 596, 588, 0, 2, 597, 2, 591, 597, 187, 598, 184, 598, 599, 184, 184, 599, 595, 586, 600, 601, 594, 602, 591, 602, 603, 591, 591, 603, 597, 2, 604, 591, 604, 124, 591, 591, 124, 95, 124, 122, 95, 95, 122, 120, 104, 102, 100, 585, 605, 586, 605, 606, 586, 586, 606, 607, 120, 118, 95, 118, 116, 95, 95, 116, 114, 114, 112, 95, 112, 110, 95, 95, 110, 96, 110, 108, 96, 108, 106, 96, 106, 104, 96, 96, 104, 98, 104, 100, 98, 607, 608, 586, 608, 609, 586, 586, 609, 600, 591, 610, 611, 187, 189, 598, 189, 191, 598, 598, 191, 193, 601, 612, 586, 612, 613, 586, 586, 613, 591, 613, 614, 591, 591, 614, 610, 611, 615, 591, 615, 616, 591, 591, 616, 589, 193, 195, 598, 195, 197, 598, 598, 197, 199, 211, 213, 598, 213, 215, 598, 598, 215, 617, 199, 201, 598, 201, 203, 598, 598, 203, 205, 205, 207, 598, 207, 209, 598, 598, 209, 211, 1, 0, 382, 0, 597, 382, 382, 597, 383, 597, 603, 383, 383, 603, 395, 603, 602, 395, 395, 602, 396, 602, 594, 396, 396, 594, 378, 594, 593, 378, 378, 593, 379, 593, 592, 379, 379, 592, 384, 592, 590, 384, 384, 590, 385, 590, 589, 385, 385, 589, 386, 589, 616, 386, 386, 616, 402, 616, 615, 402, 402, 615, 403, 615, 611, 403, 403, 611, 404, 611, 610, 404, 404, 610, 405, 610, 614, 405, 405, 614, 406, 614, 613, 406, 406, 613, 407, 613, 612, 407, 407, 612, 387, 612, 601, 387, 387, 601, 388, 601, 600, 388, 388, 600, 389, 600, 609, 389, 389, 609, 400, 609, 608, 400, 400, 608, 401, 608, 607, 401, 401, 607, 397, 607, 606, 397, 397, 606, 398, 606, 605, 398, 398, 605, 399, 605, 585, 399, 399, 585, 380, 585, 587, 380, 380, 587, 381, 587, 588, 381, 381, 588, 390, 588, 596, 390, 390, 596, 391, 596, 595, 391, 391, 595, 392, 595, 599, 392, 392, 599, 393, 599, 598, 393, 591, 466, 586, 466, 467, 586, 62, 127, 63, 127, 126, 63, 125, 124, 377, 124, 604, 377, 352, 354, 152, 60, 306, 308, 552, 554, 286, 300, 302, 60, 302, 304, 60, 60, 304, 306, 308, 310, 60, 310, 312, 60, 60, 312, 183, 312, 314, 183, 183, 314, 316, 556, 558, 266, 494, 496, 31, 316, 318, 183, 318, 320, 183, 183, 320, 181, 320, 322, 181, 181, 322, 179, 322, 324, 179, 179, 324, 177, 324, 326, 177, 177, 326, 175, 326, 328, 175, 175, 328, 173, 328, 330, 173, 173, 330, 171, 330, 332, 171, 171, 332, 169, 332, 334, 169, 169, 334, 167, 334, 336, 167, 167, 336, 165, 336, 338, 165, 165, 338, 163, 338, 340, 163, 163, 340, 161, 340, 342, 161, 161, 342, 159, 342, 344, 159, 159, 344, 157, 344, 346, 157, 157, 346, 155, 346, 348, 155, 155, 348, 152, 348, 350, 152, 152, 350, 352, 272, 274, 554, 574, 576, 29, 272, 554, 270, 288, 290, 534, 290, 292, 534, 534, 292, 532, 538, 540, 286, 496, 498, 31, 498, 500, 31, 31, 500, 32, 500, 502, 32, 32, 502, 34, 502, 504, 34, 34, 504, 36, 504, 506, 36, 36, 506, 38, 506, 508, 38, 38, 508, 40, 508, 510, 40, 40, 510, 42, 510, 512, 42, 42, 512, 44, 512, 514, 44, 44, 514, 46, 514, 516, 46, 46, 516, 48, 516, 518, 48, 48, 518, 50, 518, 520, 50, 50, 520, 52, 520, 522, 52, 52, 522, 54, 522, 524, 54, 54, 524, 56, 524, 526, 56, 56, 526, 58, 526, 528, 58, 58, 528, 60, 528, 530, 60, 60, 530, 532, 484, 486, 28, 292, 294, 532, 294, 296, 532, 532, 296, 60, 296, 298, 60, 60, 298, 300, 556, 266, 554, 266, 268, 554, 554, 268, 270, 274, 276, 554, 276, 278, 554, 554, 278, 280, 280, 282, 554, 282, 284, 554, 554, 284, 286, 288, 534, 286, 534, 536, 286, 286, 536, 538, 540, 542, 286, 542, 544, 286, 286, 544, 546, 546, 548, 286, 548, 550, 286, 286, 550, 552, 568, 570, 29, 570, 572, 29, 29, 572, 574, 576, 578, 29, 578, 580, 29, 29, 580, 28, 580, 582, 28, 582, 584, 28, 584, 470, 28, 28, 470, 472, 472, 474, 28, 474, 476, 28, 28, 476, 478, 478, 480, 28, 480, 482, 28, 28, 482, 484, 368, 370, 29, 370, 372, 29, 29, 372, 374, 374, 376, 29, 376, 262, 29, 29, 262, 264, 486, 488, 28, 488, 490, 28, 28, 490, 31, 490, 492, 31, 31, 492, 494, 354, 356, 152, 356, 358, 152, 152, 358, 29, 358, 360, 29, 29, 360, 362, 362, 364, 29, 364, 366, 29, 29, 366, 368, 558, 560, 266, 560, 562, 266, 266, 562, 264, 562, 564, 264, 264, 564, 29, 564, 566, 29, 29, 566, 568, 617, 215, 394, 215, 214, 394, 357, 355, 153, 315, 313, 559, 499, 497, 30, 583, 581, 301, 581, 579, 301, 301, 579, 577, 313, 311, 559, 311, 309, 559, 559, 309, 307, 577, 575, 301, 575, 573, 301, 301, 573, 571, 295, 293, 468, 355, 353, 153, 353, 351, 153, 153, 351, 154, 351, 349, 154, 154, 349, 156, 349, 347, 156, 156, 347, 158, 347, 345, 158, 158, 345, 160, 345, 343, 160, 160, 343, 162, 343, 341, 162, 162, 341, 164, 341, 339, 164, 164, 339, 166, 339, 337, 166, 166, 337, 168, 337, 335, 168, 168, 335, 170, 335, 333, 170, 170, 333, 172, 333, 331, 172, 172, 331, 174, 331, 329, 174, 174, 329, 176, 329, 327, 176, 176, 327, 178, 327, 325, 178, 178, 325, 180, 325, 323, 180, 180, 323, 182, 557, 319, 559, 319, 317, 559, 559, 317, 315, 571, 569, 301, 569, 567, 301, 301, 567, 565, 489, 487, 408, 565, 563, 301, 563, 561, 301, 301, 561, 303, 561, 559, 303, 303, 559, 305, 559, 307, 305, 295, 468, 297, 557, 555, 319, 555, 182, 319, 319, 182, 321, 182, 323, 321, 555, 553, 182, 553, 551, 182, 182, 551, 549, 583, 301, 468, 301, 299, 468, 468, 299, 297, 293, 291, 468, 291, 289, 468, 468, 289, 469, 487, 485, 408, 485, 483, 408, 408, 483, 481, 481, 479, 408, 479, 477, 408, 408, 477, 475, 549, 547, 182, 547, 545, 182, 182, 545, 543, 543, 541, 182, 541, 539, 182, 182, 539, 61, 539, 537, 61, 61, 537, 535, 409, 267, 265, 535, 533, 61, 533, 531, 61, 61, 531, 59, 531, 529, 59, 59, 529, 57, 529, 527, 57, 57, 527, 55, 527, 525, 55, 55, 525, 53, 525, 523, 53, 53, 523, 51, 523, 521, 51, 51, 521, 49, 521, 519, 49, 49, 519, 47, 519, 517, 47, 47, 517, 45, 517, 515, 45, 45, 515, 43, 515, 513, 43, 43, 513, 41, 513, 511, 41, 41, 511, 39, 511, 509, 39, 39, 509, 37, 509, 507, 37, 37, 507, 35, 507, 505, 35, 35, 505, 33, 505, 503, 33, 33, 503, 30, 503, 501, 30, 30, 501, 499, 497, 495, 30, 495, 493, 30, 30, 493, 408, 493, 491, 408, 408, 491, 489, 475, 473, 408, 473, 471, 408, 408, 471, 469, 289, 287, 469, 287, 285, 469, 469, 285, 408, 285, 283, 408, 408, 283, 281, 265, 263, 409, 263, 261, 409, 409, 261, 260, 281, 279, 408, 279, 277, 408, 408, 277, 275, 275, 273, 408, 273, 271, 408, 408, 271, 409, 271, 269, 409, 409, 269, 267, 260, 375, 409, 375, 373, 409, 409, 373, 371, 371, 369, 409, 369, 367, 409, 409, 367, 365, 365, 363, 409, 363, 361, 409, 409, 361, 153, 361, 359, 153, 153, 359, 357, 598, 617, 393, 617, 394, 393, 182, 61, 183, 61, 60, 183, 31, 30, 408, 20, 22, 412, 22, 24, 412, 412, 24, 26, 408, 410, 31, 410, 412, 31, 31, 412, 28, 412, 26, 28, 8, 412, 6, 412, 414, 6, 6, 414, 4, 414, 416, 4, 4, 416, 259, 8, 10, 412, 10, 12, 412, 412, 12, 14, 259, 416, 257, 416, 418, 257, 257, 418, 255, 418, 420, 255, 255, 420, 253, 420, 422, 253, 253, 422, 251, 422, 424, 251, 251, 424, 249, 424, 426, 249, 249, 426, 247, 426, 428, 247, 247, 428, 245, 428, 430, 245, 245, 430, 243, 430, 432, 243, 243, 432, 241, 432, 434, 241, 241, 434, 239, 434, 436, 239, 239, 436, 237, 436, 438, 237, 237, 438, 235, 438, 440, 235, 235, 440, 233, 440, 442, 233, 233, 442, 231, 442, 444, 231, 231, 444, 229, 444, 446, 229, 229, 446, 227, 446, 448, 227, 227, 448, 225, 448, 450, 225, 225, 450, 223, 450, 452, 223, 223, 452, 221, 452, 454, 221, 221, 454, 219, 454, 456, 219, 219, 456, 217, 456, 458, 217, 217, 458, 150, 458, 460, 150, 150, 460, 148, 126, 128, 460, 591, 91, 89, 89, 87, 591, 87, 85, 591, 591, 85, 83, 14, 16, 412, 16, 18, 412, 412, 18, 20, 95, 94, 591, 94, 93, 591, 591, 93, 91, 464, 67, 462, 67, 65, 462, 462, 65, 460, 65, 63, 460, 460, 63, 126, 83, 81, 591, 81, 79, 591, 591, 79, 77, 460, 134, 136, 142, 144, 460, 144, 146, 460, 460, 146, 148, 77, 75, 591, 75, 73, 591, 591, 73, 71, 128, 130, 460, 130, 132, 460, 460, 132, 134, 464, 466, 67, 466, 591, 67, 67, 591, 69, 591, 71, 69, 136, 138, 460, 138, 140, 460, 460, 140, 142, 2, 3, 604, 3, 377, 604, 62, 64, 465, 84, 86, 586, 86, 88, 586, 27, 25, 413, 185, 184, 92, 184, 586, 92, 92, 586, 90, 586, 88, 90, 62, 465, 127, 586, 467, 465, 78, 80, 586, 80, 82, 586, 586, 82, 84, 409, 153, 411, 153, 152, 411, 411, 152, 413, 152, 29, 413, 413, 29, 27, 64, 66, 465, 66, 68, 465, 465, 68, 586, 68, 70, 586, 586, 70, 72, 72, 74, 586, 74, 76, 586, 586, 76, 78, 465, 135, 133, 415, 5, 417, 5, 258, 417, 417, 258, 419, 258, 256, 419, 419, 256, 421, 256, 254, 421, 421, 254, 423, 254, 252, 423, 423, 252, 425, 252, 250, 425, 425, 250, 427, 250, 248, 427, 427, 248, 429, 248, 246, 429, 429, 246, 431, 246, 244, 431, 431, 244, 433, 244, 242, 433, 433, 242, 435, 242, 240, 435, 435, 240, 437, 240, 238, 437, 437, 238, 439, 238, 236, 439, 439, 236, 441, 236, 234, 441, 441, 234, 443, 234, 232, 443, 443, 232, 445, 232, 230, 445, 445, 230, 447, 230, 228, 447, 447, 228, 449, 228, 226, 449, 449, 226, 451, 226, 224, 451, 451, 224, 453, 224, 222, 453, 453, 222, 455, 222, 220, 455, 455, 220, 457, 220, 218, 457, 457, 218, 459, 218, 216, 459, 459, 216, 461, 216, 151, 461, 461, 151, 463, 151, 149, 463, 149, 147, 463, 147, 145, 463, 463, 145, 465, 145, 143, 465, 465, 143, 141, 133, 131, 465, 131, 129, 465, 465, 129, 127, 25, 23, 413, 23, 21, 413, 413, 21, 19, 13, 11, 413, 11, 9, 413, 413, 9, 415, 9, 7, 415, 415, 7, 5, 141, 139, 465, 139, 137, 465, 465, 137, 135, 19, 17, 413, 17, 15, 413, 413, 15, 13]
        rel material:binding = </World/Looks/Orange>
        point3f[] points = [(0.057589374, 0.024, 0.030960338), (0.048589375, 0.024, 0.030960338), (0.057589374, 0.024, 0.031), (0.048589375, 0.024, 0.031), (-0.030278979, 0.010352941, 0.05), (-0.030278979, 0.010352941, 0), (-0.030355912, 0.010160986, 0.05), (-0.030355912, 0.010160986, 0), (-0.030452253, 0.009978001, 0.05), (-0.030452253, 0.009978001, 0), (-0.030566975, 0.009805943, 0.05), (-0.030566975, 0.009805943, 0), (-0.03069885, 0.00964665, 0.05), (-0.03069885, 0.00964665, 0), (-0.030846471, 0.009501827, 0.05), (-0.030846471, 0.009501827, 0), (-0.031008257, 0.009373021, 0.05), (-0.031008257, 0.009373021, 0), (-0.031182477, 0.00926161, 0.05), (-0.031182477, 0.00926161, 0), (-0.03136727, 0.009168785, 0.05), (-0.03136727, 0.009168785, 0), (-0.03156066, 0.0090955375, 0.05), (-0.03156066, 0.0090955375, 0), (-0.03176058, 0.009042651, 0.05), (-0.03176058, 0.009042651, 0), (-0.031964894, 0.009010691, 0.05), (-0.031964894, 0.009010691, 0), (-0.032171417, 0.009, 0.05), (-0.032171417, 0.009, 0), (-0.050410625, 0, 0.05), (-0.050410625, 0.009, 0.05), (-0.051142324, 0.009, 0.049961653), (-0.051142324, 0, 0.049961653), (-0.051866006, 0.009, 0.049847033), (-0.051866006, 0, 0.049847033), (-0.052573744, 0.009, 0.049657397), (-0.052573744, 0, 0.049657397), (-0.053257782, 0.009, 0.04939482), (-0.053257782, 0, 0.04939482), (-0.053910624, 0.009, 0.049062178), (-0.053910624, 0, 0.049062178), (-0.054525122, 0.009, 0.04866312), (-0.054525122, 0, 0.04866312), (-0.05509454, 0.009, 0.048202015), (-0.05509454, 0, 0.048202015), (-0.05561264, 0.009, 0.047683913), (-0.05561264, 0, 0.047683913), (-0.056073748, 0.009, 0.047114495), (-0.056073748, 0, 0.047114495), (-0.056472804, 0.009, 0.0465), (-0.056472804, 0, 0.0465), (-0.056805443, 0.009, 0.045847155), (-0.056805443, 0, 0.045847155), (-0.05706802, 0.009, 0.045163117), (-0.05706802, 0, 0.045163117), (-0.05725766, 0.009, 0.044455383), (-0.05725766, 0, 0.044455383), (-0.05737228, 0.009, 0.0437317), (-0.05737228, 0, 0.0437317), (-0.057410624, 0.009, 0.043), (-0.057410624, 0, 0.043), (0.046589375, 0.009, 0), (0.046589375, 0.009, 0.05), (0.04679843, 0.009010957, 0), (0.04679843, 0.009010957, 0.05), (0.0470052, 0.009043705, 0), (0.0470052, 0.009043705, 0.05), (0.047207408, 0.009097887, 0), (0.047207408, 0.009097887, 0.05), (0.047402848, 0.009172909, 0), (0.047402848, 0.009172909, 0.05), (0.047589373, 0.0092679495, 0), (0.047589373, 0.0092679495, 0.05), (0.047764946, 0.009381966, 0), (0.047764946, 0.009381966, 0.05), (0.047927637, 0.009513711, 0), (0.047927637, 0.009513711, 0.05), (0.048075665, 0.009661739, 0), (0.048075665, 0.009661739, 0.05), (0.04820741, 0.00982443, 0), (0.04820741, 0.00982443, 0.05), (0.048321426, 0.01, 0), (0.048321426, 0.01, 0.05), (0.048416466, 0.010186527, 0), (0.048416466, 0.010186527, 0.05), (0.04849149, 0.010381966, 0), (0.04849149, 0.010381966, 0.05), (0.04854567, 0.0105841765, 0), (0.04854567, 0.0105841765, 0.05), (0.04857842, 0.010790943, 0), (0.04857842, 0.010790943, 0.05), (0.048589375, 0.011, 0), (0.048589375, 0.011, 0.05), (0.048589375, 0.035, 0.05), (0.057589374, 0.035, 0.05), (0.057589374, 0.0357317, 0.049961653), (0.048589375, 0.0357317, 0.049961653), (0.057589374, 0.03645538, 0.049847033), (0.048589375, 0.03645538, 0.049847033), (0.057589374, 0.03716312, 0.049657397), (0.048589375, 0.03716312, 0.049657397), (0.057589374, 0.037847158, 0.04939482), (0.048589375, 0.037847158, 0.04939482), (0.057589374, 0.0385, 0.049062178), (0.048589375, 0.0385, 0.049062178), (0.057589374, 0.039114498, 0.04866312), (0.048589375, 0.039114498, 0.04866312), (0.057589374, 0.039683916, 0.048202015), (0.048589375, 0.039683916, 0.048202015), (0.057589374, 0.040202014, 0.047683913), (0.048589375, 0.040202014, 0.047683913), (0.057589374, 0.04066312, 0.047114495), (0.048589375, 0.04066312, 0.047114495), (0.057589374, 0.041062176, 0.0465), (0.048589375, 0.041062176, 0.0465), (0.057589374, 0.04139482, 0.045847155), (0.048589375, 0.04139482, 0.045847155), (0.057589374, 0.041657396, 0.045163117), (0.048589375, 0.041657396, 0.045163117), (0.057589374, 0.04184703, 0.044455383), (0.048589375, 0.04184703, 0.044455383), (0.057589374, 0.041961655, 0.0437317), (0.048589375, 0.041961655, 0.0437317), (0.057589374, 0.042, 0.043), (0.048589375, 0.042, 0.043), (0.032171417, 0.009, 0.05), (0.032171417, 0.009, 0), (0.031964894, 0.009010691, 0.05), (0.031964894, 0.009010691, 0), (0.03176058, 0.009042651, 0.05), (0.03176058, 0.009042651, 0), (0.03156066, 0.0090955375, 0.05), (0.03156066, 0.0090955375, 0), (0.03136727, 0.009168785, 0.05), (0.03136727, 0.009168785, 0), (0.031182477, 0.00926161, 0.05), (0.031182477, 0.00926161, 0), (0.031008257, 0.009373021, 0.05), (0.031008257, 0.009373021, 0), (0.030846471, 0.009501827, 0.05), (0.030846471, 0.009501827, 0), (0.03069885, 0.00964665, 0.05), (0.03069885, 0.00964665, 0), (0.030566975, 0.009805943, 0.05), (0.030566975, 0.009805943, 0), (0.030452253, 0.009978001, 0.05), (0.030452253, 0.009978001, 0), (0.030355912, 0.010160986, 0.05), (0.030355912, 0.010160986, 0), (0.030278979, 0.010352941, 0.05), (0.030278979, 0.010352941, 0), (-0.050410625, 0.009, 0), (-0.050410625, 0, 0), (-0.051142324, 0, 0.000038346734), (-0.051142324, 0.009, 0.000038346734), (-0.051866006, 0, 0.0001529668), (-0.051866006, 0.009, 0.0001529668), (-0.052573744, 0, 0.0003426044), (-0.052573744, 0.009, 0.0003426044), (-0.053257782, 0, 0.0006051818), (-0.053257782, 0.009, 0.0006051818), (-0.053910624, 0, 0.00093782216), (-0.053910624, 0.009, 0.00093782216), (-0.054525122, 0, 0.0013368811), (-0.054525122, 0.009, 0.0013368811), (-0.05509454, 0, 0.0017979862), (-0.05509454, 0.009, 0.0017979862), (-0.05561264, 0, 0.0023160859), (-0.05561264, 0.009, 0.0023160859), (-0.056073748, 0, 0.0028855032), (-0.056073748, 0.009, 0.0028855032), (-0.056472804, 0, 0.0035), (-0.056472804, 0.009, 0.0035), (-0.056805443, 0, 0.0041528437), (-0.056805443, 0.009, 0.0041528437), (-0.05706802, 0, 0.004836881), (-0.05706802, 0.009, 0.004836881), (-0.05725766, 0, 0.0055446182), (-0.05725766, 0.009, 0.0055446182), (-0.05737228, 0, 0.0062683006), (-0.05737228, 0.009, 0.0062683006), (-0.057410624, 0, 0.007), (-0.057410624, 0.009, 0.007), (0.057589374, 0.035, 0), (0.048589375, 0.035, 0), (0.048589375, 0.0357317, 0.000038346734), (0.057589374, 0.0357317, 0.000038346734), (0.048589375, 0.03645538, 0.0001529668), (0.057589374, 0.03645538, 0.0001529668), (0.048589375, 0.03716312, 0.0003426044), (0.057589374, 0.03716312, 0.0003426044), (0.048589375, 0.037847158, 0.0006051818), (0.057589374, 0.037847158, 0.0006051818), (0.048589375, 0.0385, 0.00093782216), (0.057589374, 0.0385, 0.00093782216), (0.048589375, 0.039114498, 0.0013368811), (0.057589374, 0.039114498, 0.0013368811), (0.048589375, 0.039683916, 0.0017979862), (0.057589374, 0.039683916, 0.0017979862), (0.048589375, 0.040202014, 0.0023160859), (0.057589374, 0.040202014, 0.0023160859), (0.048589375, 0.04066312, 0.0028855032), (0.057589374, 0.04066312, 0.0028855032), (0.048589375, 0.041062176, 0.0035), (0.057589374, 0.041062176, 0.0035), (0.048589375, 0.04139482, 0.0041528437), (0.057589374, 0.04139482, 0.0041528437), (0.048589375, 0.041657396, 0.004836881), (0.057589374, 0.041657396, 0.004836881), (0.048589375, 0.04184703, 0.0055446182), (0.057589374, 0.04184703, 0.0055446182), (0.048589375, 0.041961655, 0.0062683006), (0.057589374, 0.041961655, 0.0062683006), (0.048589375, 0.042, 0.007), (0.057589374, 0.042, 0.007), (0.028987398, 0.013554732, 0), (0.028987398, 0.013554732, 0.05), (0.027358394, 0.016598742, 0), (0.027358394, 0.016598742, 0.05), (0.025410932, 0.019449538, 0), (0.025410932, 0.019449538, 0.05), (0.02316768, 0.022073936, 0), (0.02316768, 0.022073936, 0.05), (0.020654747, 0.024441388, 0), (0.020654747, 0.024441388, 0.05), (0.017901389, 0.026524333, 0), (0.017901389, 0.026524333, 0.05), (0.014939653, 0.028298529, 0), (0.014939653, 0.028298529, 0.05), (0.011804015, 0.029743323, 0), (0.011804015, 0.029743323, 0.05), (0.008530975, 0.030841894, 0), (0.008530975, 0.030841894, 0.05), (0.0051586335, 0.031581458, 0), (0.0051586335, 0.031581458, 0.05), (0.0017262422, 0.031953406, 0), (0.0017262422, 0.031953406, 0.05), (-0.0017262422, 0.031953406, 0), (-0.0017262422, 0.031953406, 0.05), (-0.0051586335, 0.031581458, 0), (-0.0051586335, 0.031581458, 0.05), (-0.008530975, 0.030841894, 0), (-0.008530975, 0.030841894, 0.05), (-0.011804015, 0.029743323, 0), (-0.011804015, 0.029743323, 0.05), (-0.014939653, 0.028298529, 0), (-0.014939653, 0.028298529, 0.05), (-0.017901389, 0.026524333, 0), (-0.017901389, 0.026524333, 0.05), (-0.020654747, 0.024441388, 0), (-0.020654747, 0.024441388, 0.05), (-0.02316768, 0.022073936, 0), (-0.02316768, 0.022073936, 0.05), (-0.025410932, 0.019449538, 0), (-0.025410932, 0.019449538, 0.05), (-0.027358394, 0.016598742, 0), (-0.027358394, 0.016598742, 0.05), (-0.028987398, 0.013554732, 0), (-0.028987398, 0.013554732, 0.05), (-0.04646332, 0, 0.006352872), (-0.04641649, 0, 0.0067834444), (-0.04641649, 0.009, 0.0067834444), (-0.046410624, 0, 0.007), (-0.04641649, 0.009, 0.0072165555), (-0.04641649, 0, 0.0072165555), (-0.04646332, 0.009, 0.007647128), (-0.04646332, 0, 0.007647128), (-0.046556424, 0.009, 0.008070113), (-0.046556424, 0, 0.008070113), (-0.04669472, 0.009, 0.008480553), (-0.04669472, 0, 0.008480553), (-0.046876576, 0.009, 0.008873634), (-0.046876576, 0, 0.008873634), (-0.04709987, 0.009, 0.009244748), (-0.04709987, 0, 0.009244748), (-0.047361977, 0.009, 0.009589545), (-0.047361977, 0, 0.009589545), (-0.04765983, 0.009, 0.009903982), (-0.04765983, 0, 0.009903982), (-0.047989927, 0.009, 0.010184372), (-0.047989927, 0, 0.010184372), (-0.048348412, 0.009, 0.010427428), (-0.048348412, 0, 0.010427428), (-0.04873107, 0.009, 0.010630302), (-0.04873107, 0, 0.010630302), (-0.04913342, 0.009, 0.010790613), (-0.04913342, 0, 0.010790613), (-0.049550742, 0.009, 0.010906482), (-0.049550742, 0, 0.010906482), (-0.04997815, 0.009, 0.010976552), (-0.04997815, 0, 0.010976552), (-0.050410625, 0.009, 0.011), (-0.050410625, 0, 0.011), (-0.0508431, 0.009, 0.010976552), (-0.0508431, 0, 0.010976552), (-0.051270507, 0.009, 0.010906482), (-0.051270507, 0, 0.010906482), (-0.051687833, 0.009, 0.010790613), (-0.051687833, 0, 0.010790613), (-0.052090183, 0.009, 0.010630302), (-0.052090183, 0, 0.010630302), (-0.05247284, 0.009, 0.010427428), (-0.05247284, 0, 0.010427428), (-0.052831322, 0.009, 0.010184372), (-0.052831322, 0, 0.010184372), (-0.053161424, 0.009, 0.009903982), (-0.053161424, 0, 0.009903982), (-0.053459276, 0.009, 0.009589545), (-0.053459276, 0, 0.009589545), (-0.053721383, 0.009, 0.009244748), (-0.053721383, 0, 0.009244748), (-0.053944673, 0.009, 0.008873634), (-0.053944673, 0, 0.008873634), (-0.05412653, 0.009, 0.008480553), (-0.05412653, 0, 0.008480553), (-0.054264825, 0.009, 0.008070113), (-0.054264825, 0, 0.008070113), (-0.05435793, 0.009, 0.007647128), (-0.05435793, 0, 0.007647128), (-0.054404758, 0.009, 0.0072165555), (-0.054404758, 0, 0.0072165555), (-0.054404758, 0.009, 0.0067834444), (-0.054404758, 0, 0.0067834444), (-0.05435793, 0.009, 0.006352872), (-0.05435793, 0, 0.006352872), (-0.054264825, 0.009, 0.005929887), (-0.054264825, 0, 0.005929887), (-0.05412653, 0.009, 0.0055194474), (-0.05412653, 0, 0.0055194474), (-0.053944673, 0.009, 0.0051263664), (-0.053944673, 0, 0.0051263664), (-0.053721383, 0.009, 0.0047552516), (-0.053721383, 0, 0.0047552516), (-0.053459276, 0.009, 0.004410455), (-0.053459276, 0, 0.004410455), (-0.053161424, 0.009, 0.004096018), (-0.053161424, 0, 0.004096018), (-0.052831322, 0.009, 0.0038156277), (-0.052831322, 0, 0.0038156277), (-0.05247284, 0.009, 0.0035725713), (-0.05247284, 0, 0.0035725713), (-0.052090183, 0.009, 0.0033696983), (-0.052090183, 0, 0.0033696983), (-0.051687833, 0.009, 0.0032093874), (-0.051687833, 0, 0.0032093874), (-0.051270507, 0.009, 0.0030935179), (-0.051270507, 0, 0.0030935179), (-0.0508431, 0.009, 0.0030234482), (-0.0508431, 0, 0.0030234482), (-0.050410625, 0.009, 0.003), (-0.050410625, 0, 0.003), (-0.04997815, 0.009, 0.0030234482), (-0.04997815, 0, 0.0030234482), (-0.049550742, 0.009, 0.0030935179), (-0.049550742, 0, 0.0030935179), (-0.04913342, 0.009, 0.0032093874), (-0.04913342, 0, 0.0032093874), (-0.04873107, 0.009, 0.0033696983), (-0.04873107, 0, 0.0033696983), (-0.048348412, 0.009, 0.0035725713), (-0.048348412, 0, 0.0035725713), (-0.047989927, 0.009, 0.0038156277), (-0.047989927, 0, 0.0038156277), (-0.04765983, 0.009, 0.004096018), (-0.04765983, 0, 0.004096018), (-0.047361977, 0.009, 0.004410455), (-0.047361977, 0, 0.004410455), (-0.04709987, 0.009, 0.0047552516), (-0.04709987, 0, 0.0047552516), (-0.046876576, 0.009, 0.0051263664), (-0.046876576, 0, 0.0051263664), (-0.04669472, 0.009, 0.0055194474), (-0.04669472, 0, 0.0055194474), (-0.046556424, 0.009, 0.005929887), (-0.046556424, 0, 0.005929887), (-0.04646332, 0.009, 0.006352872), (0.048589375, 0.042, 0.031), (0.048589375, 0.02098667, 0.02985303), (0.048589375, 0.020480344, 0.029445967), (0.048589375, 0.021821968, 0.019604728), (0.048589375, 0.02241878, 0.019348053), (0.048589375, 0.023356287, 0.030872583), (0.048589375, 0.022725835, 0.030715745), (0.048589375, 0.020020995, 0.028986547), (0.048589375, 0.019614013, 0.028480157), (0.048589375, 0.019264165, 0.027932731), (0.048589375, 0.018664885, 0.023531688), (0.048589375, 0.018855626, 0.022910653), (0.048589375, 0.019112393, 0.02231388), (0.048589375, 0.023039846, 0.01915741), (0.048589375, 0.023677882, 0.019035032), (0.048589375, 0.024325412, 0.018982356), (0.048589375, 0.024974838, 0.019), (0.048589375, 0.042, 0.019), (0.048589375, 0.022116037, 0.030491661), (0.048589375, 0.021534042, 0.030202962), (0.048589375, 0.020245109, 0.020737197), (0.048589375, 0.020728724, 0.020303397), (0.048589375, 0.021256406, 0.019924425), (0.048589375, 0.019432178, 0.021748368), (0.048589375, 0.019811232, 0.021220744), (0.048589375, 0.018975556, 0.02735069), (0.048589375, 0.01875157, 0.026740856), (0.048589375, 0.01859483, 0.02611038), (0.048589375, 0.018507173, 0.025466654), (0.048589375, 0.01848963, 0.024817225), (0.048589375, 0.018542407, 0.024169706), (-0.023, 2.8166877e-18, 0.05), (-0.023, 2.8166877e-18, 0), (-0.022865172, 0.0024867374, 0.05), (-0.022865172, 0.0024867374, 0), (-0.022462273, 0.0049443203, 0.05), (-0.022462273, 0.0049443203, 0), (-0.021796023, 0.0073439353, 0.05), (-0.021796023, 0.0073439353, 0), (-0.020874234, 0.009657449, 0.05), (-0.020874234, 0.009657449, 0), (-0.019707715, 0.011857739, 0.05), (-0.019707715, 0.011857739, 0), (-0.01831014, 0.013919007, 0.05), (-0.01831014, 0.013919007, 0), (-0.016697897, 0.015817087, 0.05), (-0.016697897, 0.015817087, 0), (-0.014889885, 0.017529728, 0.05), (-0.014889885, 0.017529728, 0), (-0.012907303, 0.019036846, 0.05), (-0.012907303, 0.019036846, 0), (-0.010773394, 0.020320777, 0.05), (-0.010773394, 0.020320777, 0), (-0.008513178, 0.021366464, 0.05), (-0.008513178, 0.021366464, 0), (-0.006153152, 0.02216165, 0.05), (-0.006153152, 0.02216165, 0), (-0.003720986, 0.02269701, 0.05), (-0.003720986, 0.02269701, 0), (-0.0012451949, 0.02296627, 0.05), (-0.0012451949, 0.02296627, 0), (0.0012451949, 0.02296627, 0.05), (0.0012451949, 0.02296627, 0), (0.003720986, 0.02269701, 0.05), (0.003720986, 0.02269701, 0), (0.006153152, 0.02216165, 0.05), (0.006153152, 0.02216165, 0), (0.008513178, 0.021366464, 0.05), (0.008513178, 0.021366464, 0), (0.010773394, 0.020320777, 0.05), (0.010773394, 0.020320777, 0), (0.012907303, 0.019036846, 0.05), (0.012907303, 0.019036846, 0), (0.014889885, 0.017529728, 0.05), (0.014889885, 0.017529728, 0), (0.016697897, 0.015817087, 0.05), (0.016697897, 0.015817087, 0), (0.01831014, 0.013919007, 0.05), (0.01831014, 0.013919007, 0), (0.019707715, 0.011857739, 0.05), (0.019707715, 0.011857739, 0), (0.020874234, 0.009657449, 0.05), (0.020874234, 0.009657449, 0), (0.021796023, 0.0073439353, 0.05), (0.021796023, 0.0073439353, 0), (0.022462273, 0.0049443203, 0.05), (0.022462273, 0.0049443203, 0), (0.022865172, 0.0024867374, 0.05), (0.022865172, 0.0024867374, 0), (0.023, 0, 0.05), (0.023, 0, 0), (-0.04646332, 0, 0.042352874), (-0.04641649, 0, 0.042783443), (-0.04641649, 0.009, 0.042783443), (-0.046410624, 0, 0.043), (-0.04641649, 0.009, 0.043216556), (-0.04641649, 0, 0.043216556), (-0.04646332, 0.009, 0.04364713), (-0.04646332, 0, 0.04364713), (-0.046556424, 0.009, 0.044070113), (-0.046556424, 0, 0.044070113), (-0.04669472, 0.009, 0.04448055), (-0.04669472, 0, 0.04448055), (-0.046876576, 0.009, 0.044873632), (-0.046876576, 0, 0.044873632), (-0.04709987, 0.009, 0.04524475), (-0.04709987, 0, 0.04524475), (-0.047361977, 0.009, 0.045589544), (-0.047361977, 0, 0.045589544), (-0.04765983, 0.009, 0.04590398), (-0.04765983, 0, 0.04590398), (-0.047989927, 0.009, 0.046184372), (-0.047989927, 0, 0.046184372), (-0.048348412, 0.009, 0.04642743), (-0.048348412, 0, 0.04642743), (-0.04873107, 0.009, 0.0466303), (-0.04873107, 0, 0.0466303), (-0.04913342, 0.009, 0.04679061), (-0.04913342, 0, 0.04679061), (-0.049550742, 0.009, 0.046906482), (-0.049550742, 0, 0.046906482), (-0.04997815, 0.009, 0.04697655), (-0.04997815, 0, 0.04697655), (-0.050410625, 0.009, 0.047), (-0.050410625, 0, 0.047), (-0.0508431, 0.009, 0.04697655), (-0.0508431, 0, 0.04697655), (-0.051270507, 0.009, 0.046906482), (-0.051270507, 0, 0.046906482), (-0.051687833, 0.009, 0.04679061), (-0.051687833, 0, 0.04679061), (-0.052090183, 0.009, 0.0466303), (-0.052090183, 0, 0.0466303), (-0.05247284, 0.009, 0.04642743), (-0.05247284, 0, 0.04642743), (-0.052831322, 0.009, 0.046184372), (-0.052831322, 0, 0.046184372), (-0.053161424, 0.009, 0.04590398), (-0.053161424, 0, 0.04590398), (-0.053459276, 0.009, 0.045589544), (-0.053459276, 0, 0.045589544), (-0.053721383, 0.009, 0.04524475), (-0.053721383, 0, 0.04524475), (-0.053944673, 0.009, 0.044873632), (-0.053944673, 0, 0.044873632), (-0.05412653, 0.009, 0.04448055), (-0.05412653, 0, 0.04448055), (-0.054264825, 0.009, 0.044070113), (-0.054264825, 0, 0.044070113), (-0.05435793, 0.009, 0.04364713), (-0.05435793, 0, 0.04364713), (-0.054404758, 0.009, 0.043216556), (-0.054404758, 0, 0.043216556), (-0.054404758, 0.009, 0.042783443), (-0.054404758, 0, 0.042783443), (-0.05435793, 0.009, 0.042352874), (-0.05435793, 0, 0.042352874), (-0.054264825, 0.009, 0.041929886), (-0.054264825, 0, 0.041929886), (-0.05412653, 0.009, 0.04151945), (-0.05412653, 0, 0.04151945), (-0.053944673, 0.009, 0.041126367), (-0.053944673, 0, 0.041126367), (-0.053721383, 0.009, 0.040755253), (-0.053721383, 0, 0.040755253), (-0.053459276, 0.009, 0.040410455), (-0.053459276, 0, 0.040410455), (-0.053161424, 0.009, 0.04009602), (-0.053161424, 0, 0.04009602), (-0.052831322, 0.009, 0.039815627), (-0.052831322, 0, 0.039815627), (-0.05247284, 0.009, 0.03957257), (-0.05247284, 0, 0.03957257), (-0.052090183, 0.009, 0.0393697), (-0.052090183, 0, 0.0393697), (-0.051687833, 0.009, 0.03920939), (-0.051687833, 0, 0.03920939), (-0.051270507, 0.009, 0.039093517), (-0.051270507, 0, 0.039093517), (-0.0508431, 0.009, 0.039023448), (-0.0508431, 0, 0.039023448), (-0.050410625, 0.009, 0.039), (-0.050410625, 0, 0.039), (-0.04997815, 0.009, 0.039023448), (-0.04997815, 0, 0.039023448), (-0.049550742, 0.009, 0.039093517), (-0.049550742, 0, 0.039093517), (-0.04913342, 0.009, 0.03920939), (-0.04913342, 0, 0.03920939), (-0.04873107, 0.009, 0.0393697), (-0.04873107, 0, 0.0393697), (-0.048348412, 0.009, 0.03957257), (-0.048348412, 0, 0.03957257), (-0.047989927, 0.009, 0.039815627), (-0.047989927, 0, 0.039815627), (-0.04765983, 0.009, 0.04009602), (-0.04765983, 0, 0.04009602), (-0.047361977, 0.009, 0.040410455), (-0.047361977, 0, 0.040410455), (-0.04709987, 0.009, 0.040755253), (-0.04709987, 0, 0.040755253), (-0.046876576, 0.009, 0.041126367), (-0.046876576, 0, 0.041126367), (-0.04669472, 0.009, 0.04151945), (-0.04669472, 0, 0.04151945), (-0.046556424, 0.009, 0.041929886), (-0.046556424, 0, 0.041929886), (-0.04646332, 0.009, 0.042352874), (0.057589374, 0.021256406, 0.019924425), (0.057589374, 0, 0), (0.057589374, 0.021821968, 0.019604728), (0.057589374, 0.02241878, 0.019348053), (0.057589374, 0.019614013, 0.028480157), (0.057589374, 0.020020995, 0.028986547), (0.057589374, 0, 0.05), (0.057589374, 0.020480344, 0.029445967), (0.057589374, 0.02098667, 0.02985303), (0.057589374, 0.021534042, 0.030202962), (0.057589374, 0.023677882, 0.019035032), (0.057589374, 0.023039846, 0.01915741), (0.057589374, 0.023356287, 0.030872583), (0.057589374, 0.024974838, 0.019), (0.057589374, 0.024325412, 0.018982356), (0.057589374, 0.018855626, 0.022910653), (0.057589374, 0.018664885, 0.023531688), (0.057589374, 0.022116037, 0.030491661), (0.057589374, 0.022725835, 0.030715745), (0.057589374, 0.042, 0.031), (0.057589374, 0.020728724, 0.020303397), (0.057589374, 0.020245109, 0.020737197), (0.057589374, 0.019811232, 0.021220744), (0.057589374, 0.019432178, 0.021748368), (0.057589374, 0.019112393, 0.02231388), (0.057589374, 0.01859483, 0.02611038), (0.057589374, 0.01875157, 0.026740856), (0.057589374, 0.018542407, 0.024169706), (0.057589374, 0.01848963, 0.024817225), (0.057589374, 0.018507173, 0.025466654), (0.057589374, 0.018975556, 0.02735069), (0.057589374, 0.019264165, 0.027932731), (0.057589374, 0.042, 0.019)]
    }

    def "Looks"
    {
        def Material "Orange"
        {
            token outputs:surface.connect = </World/Looks/Orange/Surface.outputs:surface>

            def Shader "Surface"
            {
                uniform token info:id = "UsdPreviewSurface"
                color3f inputs:diffuseColor = (1, 0.4, 0)
                float inputs:metallic = 0.9
                float inputs:roughness = 0.4
                token outputs:surface
            }
        }
    }
}

